<svg xmlns="http://www.w3.org/2000/svg" width="14" height="14" viewBox="0 0 14 14">
  <g id="그룹_1143" data-name="그룹 1143" transform="translate(-44 -333)">
    <circle id="타원_361" data-name="타원 361" cx="7" cy="7" r="7" transform="translate(44 333)" fill="#1428a0"/>
    <path id="Icon_ionic-ios-checkmark" data-name="Icon ionic-ios-checkmark" d="M20.816,13.126l-.853-.863a.185.185,0,0,0-.136-.057h0a.177.177,0,0,0-.136.057l-5.913,5.857L11.627,16a.19.19,0,0,0-.271,0l-.863.848a.188.188,0,0,0,0,.272l2.714,2.669a.864.864,0,0,0,.567.272.905.905,0,0,0,.562-.262h0l6.48-6.405A.2.2,0,0,0,20.816,13.126Z" transform="translate(35.566 323.794)" fill="#fff"/>
  </g>
</svg>
